<?xml version="1.0" encoding="utf-8"?>
<!-- Generator: Adobe Illustrator 19.0.1, SVG Export Plug-In . SVG Version: 6.00 Build 0)  -->
<svg version="1.1" id="Capa_1" xmlns="http://www.w3.org/2000/svg" xmlns:xlink="http://www.w3.org/1999/xlink" x="0px" y="0px"
	 viewBox="-265.2 387.2 20 20" style="enable-background:new -265.2 387.2 20 20;" xml:space="preserve">
<style type="text/css">
	.st0{fill:#FFFFFF;}
</style>
<g>
	<g>
		<g>
			<path class="st0" d="M-256.5,398.8c-0.1,0-0.1-0.1-0.2-0.1c-0.2-0.1-0.4-0.1-0.6-0.1h0c-1,0-1.9,0.6-1.9,1.3
				c0,0.8,0.8,1.4,1.7,1.4c1.3,0,1.9-0.4,1.9-1.3c0-0.1,0-0.2,0-0.3C-255.7,399.4-256,399.2-256.5,398.8z"/>
			<path class="st0" d="M-257.2,396.2C-257.2,396.2-257.2,396.2-257.2,396.2c0.2,0,0.4-0.1,0.6-0.3c0.2-0.3,0.4-0.7,0.3-1.2
				c-0.1-0.9-0.7-1.6-1.4-1.6l0,0c-0.2,0-0.4,0.1-0.6,0.3c-0.2,0.3-0.3,0.7-0.3,1.2C-258.5,395.4-257.9,396.2-257.2,396.2
				L-257.2,396.2L-257.2,396.2z"/>
			<path class="st0" d="M-255.2,387.2c-5.5,0-10,4.5-10,10c0,5.5,4.5,10,10,10c5.5,0,10-4.5,10-10
				C-245.2,391.7-249.7,387.2-255.2,387.2z M-256.3,402c-0.4,0.1-0.8,0.2-1.2,0.2c-0.5,0-0.9-0.1-1.4-0.2c-0.8-0.2-1.4-0.6-1.7-1.1
				c-0.1-0.2-0.2-0.5-0.2-0.7c0-0.3,0.1-0.5,0.2-0.8c0.5-1,1.7-1.6,3-1.6c0,0,0,0,0,0c-0.1-0.2-0.2-0.4-0.2-0.6c0-0.1,0-0.2,0-0.3
				c-1.4,0-2.4-1-2.4-2.4c0-0.9,0.8-1.9,1.8-2.2c0.3-0.1,0.7-0.2,1-0.2h3c0.1,0,0.2,0.1,0.2,0.2c0,0.1,0,0.2-0.1,0.3l-0.7,0.5
				c0,0-0.1,0-0.1,0h-0.2c0.3,0.4,0.5,0.9,0.5,1.5c0,0.7-0.3,1.3-0.9,1.7c-0.5,0.4-0.5,0.5-0.5,0.7c0,0.1,0.3,0.5,0.7,0.7
				c0.8,0.6,1.1,1.2,1.1,2.1C-254.4,400.8-255.1,401.7-256.3,402z M-249.6,396.9c0,0.1-0.1,0.2-0.2,0.2h-1.7v1.7
				c0,0.1-0.1,0.2-0.2,0.2h-0.5c-0.1,0-0.2-0.1-0.2-0.2v-1.7h-1.7c-0.1,0-0.2-0.1-0.2-0.2v-0.5c0-0.1,0.1-0.2,0.2-0.2h1.7v-1.7
				c0-0.1,0.1-0.2,0.2-0.2h0.5c0.1,0,0.2,0.1,0.2,0.2v1.7h1.7c0.1,0,0.2,0.1,0.2,0.2L-249.6,396.9L-249.6,396.9z"/>
		</g>
	</g>
</g>
</svg>
