<?xml version="1.0" encoding="utf-8"?>
<!-- Generator: Adobe Illustrator 19.0.1, SVG Export Plug-In . SVG Version: 6.00 Build 0)  -->
<svg version="1.1" id="Capa_1" xmlns="http://www.w3.org/2000/svg" xmlns:xlink="http://www.w3.org/1999/xlink" x="0px" y="0px"
	 viewBox="-265.2 387.2 20 19.8" style="enable-background:new -265.2 387.2 20 19.8;" xml:space="preserve">
<style type="text/css">
	.st0{fill:#FFFFFF;}
</style>
<g>
	<g>
		<path class="st0" d="M-255.2,387.2c-5.5,0-10,4.5-10,10c0,5.5,4.5,10,10,10c5.5,0,10-4.5,10-10
			C-245.2,391.7-249.7,387.2-255.2,387.2z M-250.7,394.9c0,0.1,0,0.2,0,0.3c0,3-2.3,6.5-6.5,6.5c-1.3,0-2.5-0.4-3.5-1
			c0.2,0,0.4,0,0.5,0c1.1,0,2.1-0.4,2.9-1c-1,0-1.9-0.7-2.2-1.6c0.1,0,0.3,0,0.4,0c0.2,0,0.4,0,0.6-0.1c-1.1-0.2-1.8-1.1-1.8-2.3
			c0,0,0,0,0,0c0.3,0.2,0.7,0.3,1,0.3c-0.6-0.4-1-1.1-1-1.9c0-0.4,0.1-0.8,0.3-1.2c1.1,1.4,2.8,2.3,4.7,2.4c0-0.2-0.1-0.3-0.1-0.5
			c0-1.3,1-2.3,2.3-2.3c0.7,0,1.3,0.3,1.7,0.7c0.5-0.1,1-0.3,1.5-0.6c-0.2,0.5-0.5,1-1,1.3c0.5-0.1,0.9-0.2,1.3-0.4
			C-249.9,394.2-250.3,394.6-250.7,394.9z"/>
	</g>
</g>
</svg>
